HIERARCHY
ROOT Hips
{
	OFFSET -0.001795 -0.223333 0.028219
	CHANNELS 6 Xposition Yposition Zposition Zrotation Yrotation Xrotation 
	JOINT LeftUpLeg
	{
		OFFSET 0.069520 -0.091406 -0.006815
		CHANNELS 3 Zrotation Yrotation Xrotation
		JOINT LeftLeg
		{
			OFFSET 0.034277 -0.375199 -0.004496
			CHANNELS 3 Zrotation Yrotation Xrotation
			JOINT LeftFoot
			{
				OFFSET -0.013596 -0.397961 -0.043693
				CHANNELS 3 Zrotation Yrotation Xrotation
				JOINT LeftToe
				{
					OFFSET 0.026358 -0.055791 0.119288
					CHANNELS 3 Zrotation Yrotation Xrotation
					End Site
					{
						OFFSET 0.000000 0.000000 0.000000
					}
				}
			}
		}
	}
	JOINT RightUpLeg
	{
		OFFSET -0.067670 -0.090522 -0.004320
		CHANNELS 3 Zrotation Yrotation Xrotation
		JOINT RightLeg
		{
			OFFSET -0.038290 -0.382569 -0.008850
			CHANNELS 3 Zrotation Yrotation Xrotation
			JOINT RightFoot
			{
				OFFSET 0.015774 -0.398415 -0.042312
				CHANNELS 3 Zrotation Yrotation Xrotation
				JOINT RightToe
				{
					OFFSET -0.025372 -0.048144 0.123348
					CHANNELS 3 Zrotation Yrotation Xrotation
					End Site
					{
						OFFSET 0.000000 0.000000 0.000000
					}
				}
			}
		}
	}
	JOINT Spine
	{
		OFFSET -0.002533 0.108963 -0.026696
		CHANNELS 3 Zrotation Yrotation Xrotation
		JOINT Spine1
		{
			OFFSET 0.005487 0.135180 0.001092
			CHANNELS 3 Zrotation Yrotation Xrotation
			JOINT Spine2
			{
				OFFSET 0.001457 0.052922 0.025425
				CHANNELS 3 Zrotation Yrotation Xrotation
				JOINT Neck
				{
					OFFSET -0.002778 0.213870 -0.042857
					CHANNELS 3 Zrotation Yrotation Xrotation
					JOINT Head
					{
						OFFSET 0.005152 0.064970 0.051349
						CHANNELS 3 Zrotation Yrotation Xrotation
						End Site
						{
							OFFSET 0.000000 0.000000 0.000000
						}
					}
				}
				JOINT LeftShoulder
				{
					OFFSET 0.078845 0.121749 -0.034090
					CHANNELS 3 Zrotation Yrotation Xrotation
					JOINT LeftArm
					{
						OFFSET 0.090977 0.030469 -0.008868
						CHANNELS 3 Zrotation Yrotation Xrotation
						JOINT LeftForeArm
						{
							OFFSET 0.259612 -0.012772 -0.027456
							CHANNELS 3 Zrotation Yrotation Xrotation
							JOINT LeftHand
							{
								OFFSET 0.249234 0.008986 -0.001171
								CHANNELS 3 Zrotation Yrotation Xrotation
								End Site
								{
									OFFSET 0.000000 0.000000 0.000000
								}
							}
						}
					}
				}
				JOINT RightShoulder
				{
					OFFSET -0.081759 0.118833 -0.038615
					CHANNELS 3 Zrotation Yrotation Xrotation
					JOINT RightArm
					{
						OFFSET -0.096012 0.032551 -0.009143
						CHANNELS 3 Zrotation Yrotation Xrotation
						JOINT RightForeArm
						{
							OFFSET -0.253742 -0.013329 -0.021401
							CHANNELS 3 Zrotation Yrotation Xrotation
							JOINT RightHand
							{
								OFFSET -0.255298 0.007772 -0.005559
								CHANNELS 3 Zrotation Yrotation Xrotation
								End Site
								{
									OFFSET 0.000000 0.000000 0.000000
								}
							}
						}
					}
				}
			}
		}
	}
}
MOTION
Frames: 6
Frame Time: 0.050000
0.032737 0.956902 0.100304 -4.636109 -9.009095 1.295387 4.740403 -0.116799 -2.785025 -0.827439 -0.006175 7.294080 3.596590 9.634327 12.650072 0.000000 0.000000 0.000000 0.968082 0.357431 -3.765740 -1.932070 0.223234 0.813461 12.557300 15.015381 16.423647 0.000000 0.000000 0.000000 2.558798 -0.360022 5.356506 -1.747529 0.816062 -1.101763 -4.905495 6.074454 2.873764 5.829660 -1.876594 -17.883133 0.000000 0.000000 0.000000 -17.110542 -3.417605 -0.408875 -42.323316 -21.032684 2.317559 20.317181 -83.285945 -15.003412 0.000000 0.000000 0.000000 19.279563 6.425290 2.227264 56.609040 24.765399 6.535608 27.581526 77.907746 26.549580 0.000000 0.000000 0.000000 
0.032993 0.957101 0.096944 -4.515480 -8.610575 1.495095 5.049647 -0.130404 -3.156381 -1.472453 0.114424 7.005852 3.336434 9.263128 12.722839 0.000000 0.000000 0.000000 1.031599 0.358021 -3.768938 -1.890751 0.211372 0.667029 11.449188 13.966851 15.158575 0.000000 0.000000 0.000000 2.489157 -0.353595 5.272148 -1.846129 0.866271 -0.971452 -4.689656 6.416033 2.859333 5.898433 -1.863717 -17.884008 0.000000 0.000000 0.000000 -16.863808 -2.966103 -0.723799 -42.529688 -18.671359 1.538956 -112.994131 -88.111817 114.487641 0.000000 0.000000 0.000000 19.075593 6.430885 2.364424 56.978106 24.403854 6.410597 48.559110 79.221090 45.466639 0.000000 0.000000 0.000000 
0.030926 0.957163 0.093213 -4.399158 -8.210813 1.600002 5.357865 -0.135717 -3.393191 -1.846279 0.180952 6.668538 3.086659 8.913177 12.804658 0.000000 0.000000 0.000000 1.118118 0.355701 -3.743312 -1.883261 0.211370 0.660356 10.747695 13.649432 13.932451 0.000000 0.000000 0.000000 2.427484 -0.348993 5.226303 -1.813996 0.853100 -0.926998 -4.454013 6.614370 2.979892 5.937310 -1.899079 -17.556535 0.000000 0.000000 0.000000 -16.565807 -2.388671 -1.051483 -42.559637 -15.135800 0.329744 -125.808644 -80.657696 121.118019 0.000000 0.000000 0.000000 18.833250 6.354079 2.417011 57.313051 23.734969 6.109906 62.149456 77.984701 56.741833 0.000000 0.000000 0.000000 
0.030840 0.956855 0.089218 -4.220363 -7.798519 1.556640 5.602316 -0.138192 -3.556425 -2.452614 0.288229 6.407794 2.832106 8.541869 12.761148 0.000000 0.000000 0.000000 1.105084 0.348413 -3.662865 -1.877425 0.224094 0.862091 9.753368 12.947418 12.404717 0.000000 0.000000 0.000000 2.369348 -0.349536 5.290126 -1.684650 0.796052 -0.771909 -4.302552 6.742437 3.114898 6.170339 -2.031734 -17.389432 0.000000 0.000000 0.000000 -16.064696 -1.953742 -1.267818 -42.411446 -10.519562 -1.232308 -117.413774 -73.727856 104.989576 0.000000 0.000000 0.000000 18.708255 6.226083 2.430672 57.185224 22.909943 5.647712 65.017381 75.783382 57.505493 0.000000 0.000000 0.000000 
0.027956 0.956526 0.086033 -4.052099 -7.522368 1.419546 5.810492 -0.132332 -3.557737 -2.703198 0.329980 6.228065 2.657305 8.293535 12.772434 0.000000 0.000000 0.000000 1.135237 0.342676 -3.599884 -1.448129 0.230644 1.731674 8.404185 12.029550 10.122206 0.000000 0.000000 0.000000 2.434166 -0.363238 5.479483 -1.670932 0.792270 -0.645522 -4.092366 6.730360 3.242615 6.368442 -2.210168 -16.941652 0.000000 0.000000 0.000000 -15.616456 -1.365540 -1.512626 -42.179309 -5.757851 -2.815387 -105.553384 -67.935709 85.807079 0.000000 0.000000 0.000000 18.554219 5.929782 2.292469 56.674057 21.816914 5.002589 60.839933 72.462020 51.003896 0.000000 0.000000 0.000000 
0.026141 0.956034 0.083519 -3.815818 -7.353203 1.124066 5.953585 -0.120829 -3.436622 -3.120130 0.403804 6.213672 2.526630 8.101186 12.745436 0.000000 0.000000 0.000000 1.137688 0.330579 -3.477033 -0.490544 0.210977 3.402074 6.049158 9.637627 6.694592 0.000000 0.000000 0.000000 2.552765 -0.387929 5.830901 -1.701233 0.809333 -0.503161 -3.939434 6.767609 3.424744 6.646401 -2.419227 -16.639902 0.000000 0.000000 0.000000 -15.237006 -1.057433 -1.624159 -41.879787 -1.462593 -4.208032 -91.652710 -63.343311 67.020721 0.000000 0.000000 0.000000 18.371288 5.686853 2.185292 55.514049 20.739405 4.286799 53.435411 68.115584 41.570500 0.000000 0.000000 0.000000 
